<svg width="1205" height="805" viewBox="0 0 1205 805" preserveAspectRatio="none" fill="none" xmlns="http://www.w3.org/2000/svg">
<path d="M2.5 802.5V2.5H1202.5V802.5H2.5Z" stroke="white" stroke-width="5"/>
<path d="M869 3.5V197H831M601 3.5V197H769H567M341 3.5V197H504.5" stroke="white" stroke-width="5"/>
<path d="M912.5 167V184H937.5V167H912.5Z" stroke="white" stroke-width="5"/>
<path d="M977.5 132.5V149.5H1000.5V132.5H977.5Z" stroke="white" stroke-width="5"/>
<path d="M949.5 167V183.5H971.5V167H949.5Z" stroke="white" stroke-width="5"/>
<path d="M978 96.5V113H1000.5V96.5H978Z" stroke="white" stroke-width="5"/>
<path d="M272 2.5V132.5M2.5 198.5H272V178V224.5M272 271.5V391M272 453.5V391M2.5 391H272M272 497V507.5M272 516.5V507.5M2.5 507.5H272M272 561.5V626.5M272 635.5V626.5M2.5 626.5H272M272 681.5V802M340.5 802V624H517M612 802V624H579.5H810.5M912.5 802V625.5H872.5H940M1202 625.5H1000M968.5 10.5V159H913V142.5H948V10.5H968.5ZM979 41V24.5H999V41H979Z" stroke="white" stroke-width="5"/>
<path d="M979 61V78.5H1000V61H979Z" stroke="white" stroke-width="5"/>
<path d="M383.5 257.5V552.5" stroke="white" stroke-width="5"/>
</svg>
