<svg width="1205" height="806" viewBox="0 0 1205 806" preserveAspectRatio="none" fill="none" xmlns="http://www.w3.org/2000/svg">
<path d="M2.5 802.5V2.5H1202.5V802.5H2.5Z" stroke="white" stroke-width="5"/>
<path d="M1087 21V3" stroke="white" stroke-width="5"/>
<path d="M1088.5 52V68.5" stroke="white" stroke-width="5"/>
<path d="M1087.5 101V114H1203M683 402.5H772L828.5 331.5V210L747.5 163.235H683V182H740L806 218.5V325L755.5 385H683V402.5Z" stroke="white" stroke-width="5"/>
<path d="M1202 296H1128.5V279.5H1202" stroke="white" stroke-width="5"/>
<path d="M937.5 450V434.5H1136V450H937.5Z" stroke="white" stroke-width="5"/>
<path d="M898.5 803L1200.5 589.5" stroke="white" stroke-width="5"/>
<path d="M581.5 673V536.5H606V673H581.5Z" stroke="white" stroke-width="5"/>
<path d="M1.5 443H65M210.5 2V106M210.5 150V168.5M655 443H373.5M655 2V168.5M373.5 443H186.5H210.5V277.5M373.5 443L655 323.5V277.5M210.5 168.5V277.5M210.5 168.5H539M655 168.5V277.5M655 168.5H539M210.5 277.5H539M655 277.5H539M539 168.5V277.5M134.5 553H155V686H134.5V553Z" stroke="white" stroke-width="5"/>
</svg>
